<svg xmlns="http://www.w3.org/2000/svg" xmlns:xlink="http://www.w3.org/1999/xlink" width="500" zoomAndPan="magnify" viewBox="0 0 375 374.999991" height="500" preserveAspectRatio="xMidYMid meet" version="1.0"><defs><g/><clipPath id="8190d70aef"><path d="M 21.886719 251 L 353.386719 251 L 353.386719 294.429688 L 21.886719 294.429688 Z M 21.886719 251 " clip-rule="nonzero"/></clipPath><clipPath id="ab228a38af"><path d="M 22 80.679688 L 353.386719 80.679688 L 353.386719 191 L 22 191 Z M 22 80.679688 " clip-rule="nonzero"/></clipPath></defs><path fill="#000000" d="M 289.222656 131.515625 L 290.894531 132.300781 C 292.824219 133.203125 294.527344 134.417969 296.003906 135.953125 C 297.484375 137.484375 298.636719 139.234375 299.46875 141.191406 L 300.828125 144.398438 C 307.925781 135.167969 294.871094 98.589844 294.871094 98.589844 L 289.554688 98.589844 L 289.554688 116.613281 C 289.554688 116.613281 299.230469 121.960938 290.714844 130.296875 Z M 289.222656 131.515625 " fill-opacity="1" fill-rule="nonzero"/><path fill="#000000" d="M 71.046875 124.421875 L 83.695312 119.316406 L 85.511719 115.726562 L 80.847656 102.363281 L 78.621094 96.464844 C 78.621094 96.464844 67.523438 99.648438 69.703125 124.9375 Z M 71.046875 124.421875 " fill-opacity="1" fill-rule="nonzero"/><g clip-path="url(#8190d70aef)"><path fill="#000000" d="M 352.953125 252.878906 C 328.433594 251.972656 264.289062 251.324219 189.015625 251.324219 C 110.625 251.324219 44.300781 252.027344 22.238281 252.992188 L 21.886719 254.378906 C 30.300781 254.753906 45.453125 255.09375 65.445312 255.367188 L 65.445312 272.667969 C 65.445312 272.96875 65.488281 273.265625 65.578125 273.550781 C 65.671875 273.835938 65.800781 274.101562 65.976562 274.347656 C 66.148438 274.59375 66.355469 274.808594 66.59375 274.988281 C 66.832031 275.171875 67.09375 275.3125 67.378906 275.414062 L 67.378906 281.128906 C 67.378906 281.875 67.449219 282.609375 67.59375 283.339844 C 67.738281 284.070312 67.953125 284.777344 68.238281 285.464844 C 68.523438 286.152344 68.875 286.804688 69.285156 287.421875 C 69.699219 288.042969 70.167969 288.613281 70.695312 289.140625 C 71.222656 289.664062 71.792969 290.132812 72.414062 290.546875 C 73.03125 290.960938 73.683594 291.308594 74.371094 291.59375 C 75.058594 291.878906 75.765625 292.09375 76.496094 292.238281 C 77.226562 292.382812 77.964844 292.457031 78.707031 292.457031 L 79.808594 292.457031 C 80.550781 292.457031 81.289062 292.382812 82.015625 292.238281 C 82.746094 292.09375 83.457031 291.878906 84.144531 291.59375 C 84.828125 291.308594 85.484375 290.960938 86.101562 290.546875 C 86.71875 290.132812 87.292969 289.664062 87.820312 289.140625 C 88.34375 288.613281 88.8125 288.042969 89.226562 287.421875 C 89.640625 286.804688 89.988281 286.152344 90.273438 285.464844 C 90.558594 284.777344 90.773438 284.070312 90.917969 283.339844 C 91.0625 282.609375 91.136719 281.875 91.136719 281.128906 L 91.136719 266.21875 L 92.386719 265.691406 C 92.925781 265.464844 93.359375 265.105469 93.683594 264.617188 C 94.007812 264.128906 94.171875 263.59375 94.171875 263.007812 L 94.171875 255.679688 C 103.308594 255.757812 113.035156 255.828125 123.242188 255.875 L 123.242188 280.722656 C 123.242188 288.273438 131 294.390625 140.566406 294.390625 C 150.132812 294.390625 157.890625 288.273438 157.890625 280.722656 L 157.890625 256.023438 C 167.996094 256.046875 178.394531 256.058594 189.015625 256.058594 L 198.015625 256.058594 L 197.460938 285.378906 C 197.453125 285.910156 197.496094 286.4375 197.589844 286.960938 C 197.683594 287.484375 197.832031 287.996094 198.027344 288.488281 C 198.226562 288.984375 198.46875 289.453125 198.757812 289.898438 C 199.050781 290.347656 199.382812 290.757812 199.753906 291.140625 C 200.128906 291.519531 200.535156 291.859375 200.976562 292.15625 C 201.414062 292.457031 201.882812 292.710938 202.371094 292.914062 C 202.863281 293.121094 203.371094 293.277344 203.890625 293.382812 C 204.414062 293.488281 204.941406 293.539062 205.472656 293.539062 L 217.269531 293.539062 C 217.816406 293.539062 218.351562 293.484375 218.886719 293.375 C 219.417969 293.265625 219.933594 293.105469 220.433594 292.890625 C 220.933594 292.675781 221.40625 292.414062 221.851562 292.101562 C 222.296875 291.792969 222.707031 291.441406 223.082031 291.046875 C 223.457031 290.652344 223.789062 290.222656 224.074219 289.761719 C 224.363281 289.300781 224.601562 288.816406 224.789062 288.304688 C 224.976562 287.796875 225.113281 287.273438 225.195312 286.734375 C 225.277344 286.199219 225.300781 285.660156 225.273438 285.117188 L 223.769531 256.023438 C 234.414062 255.992188 244.703125 255.949219 254.554688 255.894531 C 255.09375 260.207031 255.796875 264.707031 256.695312 269.382812 C 256.695312 269.382812 258.667969 284.664062 265.875 290.007812 C 269.480469 292.679688 271.714844 289.574219 273.050781 285.800781 C 274.484375 281.75 274.773438 277.382812 274.078125 273.144531 C 273.414062 269.101562 272.402344 262.71875 271.4375 255.789062 C 282.84375 255.707031 293.492188 255.605469 303.203125 255.492188 C 302.226562 262.535156 301.195312 269.042969 300.523438 273.144531 C 299.828125 277.382812 300.113281 281.75 301.550781 285.800781 C 302.886719 289.5625 305.117188 292.679688 308.726562 290.007812 C 315.933594 284.65625 317.90625 269.382812 317.90625 269.382812 C 318.847656 264.480469 319.574219 259.765625 320.125 255.265625 C 334.332031 255.042969 345.601562 254.789062 353.105469 254.507812 Z M 79.257812 287.761719 C 78.914062 287.761719 78.574219 287.730469 78.238281 287.660156 C 77.902344 287.59375 77.574219 287.496094 77.257812 287.363281 C 76.941406 287.234375 76.640625 287.074219 76.355469 286.882812 C 76.070312 286.691406 75.808594 286.476562 75.566406 286.234375 C 75.320312 285.992188 75.105469 285.726562 74.914062 285.441406 C 74.722656 285.15625 74.5625 284.855469 74.433594 284.539062 C 74.300781 284.222656 74.203125 283.894531 74.136719 283.558594 C 74.066406 283.222656 74.035156 282.882812 74.035156 282.539062 C 74.035156 282.199219 74.066406 281.859375 74.136719 281.523438 C 74.203125 281.183594 74.300781 280.859375 74.433594 280.542969 C 74.5625 280.226562 74.722656 279.925781 74.914062 279.640625 C 75.105469 279.355469 75.320312 279.089844 75.566406 278.847656 C 75.808594 278.605469 76.070312 278.390625 76.355469 278.199219 C 76.640625 278.007812 76.941406 277.847656 77.257812 277.714844 C 77.574219 277.585938 77.902344 277.484375 78.238281 277.417969 C 78.574219 277.351562 78.914062 277.320312 79.257812 277.320312 C 79.601562 277.320312 79.941406 277.351562 80.277344 277.417969 C 80.613281 277.484375 80.941406 277.585938 81.257812 277.714844 C 81.574219 277.847656 81.875 278.007812 82.160156 278.199219 C 82.445312 278.390625 82.707031 278.605469 82.953125 278.847656 C 83.195312 279.089844 83.410156 279.355469 83.601562 279.640625 C 83.792969 279.925781 83.953125 280.226562 84.082031 280.542969 C 84.214844 280.859375 84.3125 281.183594 84.378906 281.523438 C 84.449219 281.859375 84.480469 282.199219 84.480469 282.539062 C 84.480469 282.882812 84.449219 283.222656 84.378906 283.558594 C 84.3125 283.894531 84.214844 284.222656 84.082031 284.539062 C 83.953125 284.855469 83.792969 285.15625 83.601562 285.441406 C 83.410156 285.726562 83.195312 285.992188 82.953125 286.234375 C 82.707031 286.476562 82.445312 286.691406 82.160156 286.882812 C 81.875 287.074219 81.574219 287.234375 81.257812 287.363281 C 80.941406 287.496094 80.613281 287.59375 80.277344 287.660156 C 79.941406 287.730469 79.601562 287.761719 79.257812 287.761719 Z M 79.257812 287.761719 " fill-opacity="1" fill-rule="nonzero"/></g><g clip-path="url(#ab228a38af)"><path fill="#000000" d="M 353.390625 188.84375 L 353.238281 187.214844 C 344.761719 186.902344 331.546875 186.621094 314.773438 186.382812 L 314.753906 186.320312 C 314.59375 185.757812 314.578125 185.191406 314.703125 184.617188 C 314.828125 184.046875 315.082031 183.539062 315.464844 183.09375 C 317.179688 181.148438 317.949219 178.628906 318.285156 176.625 C 318.320312 176.421875 318.332031 176.214844 318.316406 176.007812 C 318.304688 175.800781 318.265625 175.597656 318.207031 175.402344 C 318.148438 175.203125 318.066406 175.011719 317.964844 174.832031 C 317.863281 174.652344 317.742188 174.488281 317.601562 174.332031 C 317.460938 174.179688 317.308594 174.046875 317.136719 173.929688 C 316.964844 173.8125 316.785156 173.714844 316.589844 173.640625 C 316.398438 173.5625 316.199219 173.507812 315.996094 173.476562 C 315.789062 173.449219 315.585938 173.441406 315.378906 173.457031 L 312.753906 173.652344 C 312.121094 173.699219 311.5 173.644531 310.882812 173.484375 C 310.269531 173.328125 309.695312 173.074219 309.164062 172.730469 C 308.632812 172.382812 308.171875 171.960938 307.78125 171.460938 C 307.386719 170.964844 307.085938 170.417969 306.871094 169.820312 L 305.121094 164.902344 L 299.910156 167.457031 L 299.910156 156.382812 C 299.910156 155.972656 299.9375 155.558594 299.996094 155.152344 C 300.394531 152.335938 301.519531 139.582031 290.363281 134.265625 C 288.386719 133.332031 286.679688 132.046875 285.234375 130.40625 C 283.421875 128.324219 281.839844 125.398438 282.773438 122.015625 C 282.773438 122.015625 283.441406 118.558594 288.121094 115.640625 L 288.121094 98.589844 L 281.691406 98.589844 C 281.691406 98.589844 272.519531 134.773438 276.757812 149.195312 C 277.121094 150.464844 277.730469 151.601562 278.582031 152.605469 C 279.777344 154.027344 281.203125 155.160156 282.859375 156 C 284.515625 156.839844 286.269531 157.320312 288.121094 157.445312 L 291.445312 171.597656 L 288.125 173.222656 L 292.433594 186.117188 C 288.457031 186.078125 284.355469 186.039062 280.125 186.003906 L 284.378906 173.277344 L 280.6875 171.46875 L 283.570312 158.542969 L 280.992188 157.625 C 279.46875 157.097656 278.175781 156.21875 277.121094 154.996094 L 274.898438 152.421875 L 271.757812 167.113281 L 267.382812 164.972656 L 265.628906 169.867188 C 265.417969 170.464844 265.113281 171.011719 264.722656 171.511719 C 264.328125 172.007812 263.867188 172.429688 263.335938 172.777344 C 262.804688 173.121094 262.230469 173.375 261.617188 173.535156 C 261.003906 173.691406 260.378906 173.746094 259.746094 173.703125 L 257.121094 173.503906 C 256.917969 173.488281 256.710938 173.496094 256.503906 173.527344 C 256.300781 173.558594 256.101562 173.609375 255.910156 173.6875 C 255.714844 173.761719 255.535156 173.859375 255.363281 173.976562 C 255.191406 174.09375 255.039062 174.230469 254.898438 174.382812 C 254.757812 174.535156 254.636719 174.699219 254.535156 174.878906 C 254.429688 175.0625 254.351562 175.25 254.292969 175.449219 C 254.230469 175.648438 254.195312 175.847656 254.183594 176.054688 C 254.167969 176.261719 254.179688 176.46875 254.210938 176.671875 C 254.554688 178.675781 255.320312 181.195312 257.039062 183.140625 C 257.710938 183.921875 257.980469 184.820312 257.84375 185.84375 C 245.898438 185.773438 233.273438 185.722656 220.125 185.691406 L 219.609375 175.65625 L 216.519531 114.566406 L 220.3125 114.566406 C 220.515625 114.566406 220.710938 114.527344 220.898438 114.445312 C 221.085938 114.363281 221.25 114.25 221.386719 114.101562 C 221.527344 113.953125 221.632812 113.785156 221.699219 113.59375 C 221.769531 113.402344 221.796875 113.203125 221.785156 113 C 221.535156 108.757812 221.316406 97.332031 226.277344 97.214844 C 232.375 97.070312 241.335938 106.894531 241.335938 106.894531 L 246.726562 112.605469 C 246.992188 112.886719 247.296875 113.105469 247.644531 113.269531 C 247.992188 113.433594 248.359375 113.53125 248.742188 113.554688 C 249.125 113.582031 249.5 113.539062 249.867188 113.425781 C 250.234375 113.3125 250.570312 113.136719 250.871094 112.898438 C 251.171875 112.65625 251.417969 112.371094 251.613281 112.039062 C 251.804688 111.710938 251.933594 111.355469 251.992188 110.972656 C 252.054688 110.59375 252.042969 110.21875 251.964844 109.84375 C 251.882812 109.46875 251.738281 109.117188 251.523438 108.796875 C 247.574219 102.878906 236.585938 88.011719 222.484375 82.519531 C 219.464844 81.363281 216.335938 80.792969 213.101562 80.808594 L 195.1875 80.808594 C 195.039062 80.808594 194.898438 80.839844 194.761719 80.894531 C 194.628906 80.949219 194.507812 81.03125 194.402344 81.136719 C 194.300781 81.238281 194.21875 81.359375 194.164062 81.496094 C 194.105469 81.632812 194.078125 81.773438 194.078125 81.917969 L 194.078125 83.820312 L 165.445312 80.828125 C 165.214844 80.804688 164.984375 80.804688 164.757812 80.828125 C 164.527344 80.851562 164.300781 80.898438 164.082031 80.96875 C 163.863281 81.042969 163.652344 81.136719 163.453125 81.25 C 163.25 81.367188 163.066406 81.5 162.894531 81.65625 C 162.722656 81.808594 162.566406 81.980469 162.429688 82.167969 C 162.296875 82.355469 162.179688 82.554688 162.085938 82.765625 C 161.992188 82.976562 161.921875 83.195312 161.871094 83.421875 C 161.824219 83.648438 161.800781 83.875 161.800781 84.105469 L 161.800781 98.542969 C 161.800781 98.773438 161.824219 99 161.871094 99.226562 C 161.917969 99.449219 161.988281 99.667969 162.082031 99.878906 C 162.175781 100.085938 162.289062 100.285156 162.425781 100.472656 C 162.558594 100.660156 162.710938 100.828125 162.882812 100.984375 C 163.050781 101.136719 163.234375 101.273438 163.433594 101.390625 C 163.632812 101.503906 163.839844 101.597656 164.058594 101.671875 C 164.277344 101.746094 164.5 101.792969 164.726562 101.820312 C 164.957031 101.84375 165.183594 101.847656 165.414062 101.824219 L 194.074219 99.082031 C 194.074219 99.082031 197.519531 106.609375 197.375 113.710938 C 197.375 113.949219 197.460938 114.152344 197.628906 114.320312 C 197.796875 114.488281 198 114.570312 198.238281 114.570312 L 202.617188 114.570312 L 199.527344 175.660156 L 199.328125 185.660156 L 189.292969 185.660156 C 174.164062 185.660156 159.484375 185.6875 145.488281 185.734375 L 145.6875 126.621094 L 148.992188 116.496094 L 145.511719 88.671875 L 135.617188 88.671875 L 132.117188 116.496094 L 135.445312 126.621094 L 135.445312 185.777344 C 120.734375 185.839844 106.882812 185.929688 94.171875 186.042969 L 94.171875 178.792969 C 94.171875 178.429688 94.105469 178.078125 93.972656 177.738281 C 93.839844 177.402344 93.652344 177.097656 93.40625 176.828125 C 93.164062 176.558594 92.878906 176.34375 92.550781 176.183594 C 92.226562 176.019531 91.882812 175.921875 91.519531 175.890625 C 91.082031 175.851562 91.0625 175.734375 91.0625 175.734375 C 90.730469 170.917969 91.371094 165.570312 92.160156 161.222656 C 92.59375 158.816406 93.378906 156.53125 94.519531 154.367188 C 95.660156 152.203125 97.101562 150.261719 98.84375 148.542969 C 103.203125 144.238281 109.195312 136.480469 110.175781 125.683594 L 86 137.347656 L 88.042969 142.761719 C 88.222656 143.222656 88.308594 143.695312 88.304688 144.191406 C 88.300781 144.683594 88.203125 145.15625 88.015625 145.613281 C 87.828125 146.070312 87.558594 146.472656 87.214844 146.824219 C 86.871094 147.175781 86.472656 147.453125 86.019531 147.648438 L 85.550781 147.847656 L 83.769531 132.578125 C 84.082031 132.921875 84.320312 133.304688 84.492188 133.738281 L 85.121094 135.339844 L 109.792969 123.4375 L 110.308594 123.152344 C 110.332031 121.757812 110.269531 120.363281 110.125 118.976562 C 107.890625 97.441406 83.957031 94.890625 83.957031 94.890625 L 91.136719 114.191406 L 84.273438 122.328125 L 55.835938 133.667969 C 55.710938 133.722656 55.589844 133.785156 55.480469 133.867188 C 55.371094 133.945312 55.269531 134.035156 55.179688 134.140625 C 55.09375 134.242188 55.015625 134.355469 54.957031 134.476562 C 54.894531 134.601562 54.847656 134.726562 54.816406 134.859375 C 54.785156 134.992188 54.773438 135.128906 54.773438 135.265625 C 54.773438 135.402344 54.792969 135.535156 54.828125 135.667969 C 54.859375 135.800781 54.910156 135.925781 54.976562 136.046875 C 55.039062 136.164062 55.117188 136.277344 55.207031 136.378906 C 57.777344 139.238281 60.027344 142.332031 61.96875 145.652344 L 62.015625 145.636719 L 70.539062 141.25 L 69.917969 139.820312 C 69.8125 139.585938 69.726562 139.34375 69.667969 139.09375 C 69.609375 138.84375 69.574219 138.589844 69.566406 138.332031 C 69.558594 138.074219 69.574219 137.816406 69.621094 137.5625 C 69.664062 137.308594 69.734375 137.0625 69.828125 136.824219 C 69.921875 136.582031 70.039062 136.355469 70.179688 136.140625 C 70.320312 135.921875 70.480469 135.722656 70.660156 135.539062 C 70.839844 135.355469 71.039062 135.191406 71.253906 135.050781 C 71.46875 134.90625 71.695312 134.785156 71.933594 134.6875 L 72.367188 134.507812 L 74.019531 148.625 L 71.507812 143.222656 L 63.054688 147.582031 C 67.664062 156.109375 71.773438 168.59375 69.660156 184.300781 L 67.285156 185.25 C 66.714844 185.480469 66.265625 185.851562 65.933594 186.363281 C 46.117188 186.628906 31.03125 186.957031 22.539062 187.335938 L 22.191406 188.722656 C 43.898438 189.695312 110.511719 190.402344 189.320312 190.402344 C 264.730469 190.402344 328.984375 189.753906 353.390625 188.84375 Z M 81.75 131.414062 L 81.796875 131.875 L 83.679688 148.027344 L 83.746094 148.632812 L 82.453125 149.195312 L 80.527344 132.296875 L 80.414062 131.363281 C 80.863281 131.300781 81.304688 131.316406 81.75 131.414062 Z M 78.601562 131.972656 L 80.5625 149.207031 L 80.644531 150 L 79.371094 150.539062 L 77.300781 132.777344 L 77.277344 132.515625 Z M 75.46875 133.25 L 77.53125 150.984375 C 77.050781 150.980469 76.589844 150.890625 76.144531 150.710938 L 76.066406 150.023438 L 74.207031 134.039062 L 74.171875 133.78125 Z M 75.46875 133.25 " fill-opacity="1" fill-rule="nonzero"/></g><g fill="#000000" fill-opacity="1"><g transform="translate(53.406736, 213.974487)"><g><path d="M 0.8125 -17.503906 L 4.375 -17.503906 L 8.25 -4.519531 L 11.40625 -17.503906 L 14.992188 -17.503906 L 13.773438 -12.984375 L 16.546875 -4.445312 L 19.75 -17.503906 L 23.289062 -17.503906 L 18.484375 0 L 14.609375 0 L 12.242188 -7.171875 L 10.1875 0 L 6.3125 0 Z M 0.8125 -17.503906 "/></g></g></g><g fill="#000000" fill-opacity="1"><g transform="translate(77.121662, 213.974487)"><g><path d="M 1.386719 -3.441406 L 1.386719 -13.867188 C 1.386719 -14.457031 1.464844 -14.976562 1.625 -15.421875 C 1.785156 -15.867188 1.992188 -16.21875 2.246094 -16.472656 C 2.503906 -16.730469 2.800781 -16.941406 3.144531 -17.109375 C 3.488281 -17.273438 3.820312 -17.382812 4.148438 -17.429688 C 4.476562 -17.476562 4.820312 -17.503906 5.1875 -17.503906 C 9.300781 -17.390625 11.867188 -17.261719 12.886719 -17.121094 L 12.886719 -14.347656 L 5.976562 -14.347656 C 5.675781 -14.347656 5.433594 -14.3125 5.261719 -14.25 C 5.085938 -14.1875 4.960938 -14.074219 4.890625 -13.914062 C 4.816406 -13.757812 4.773438 -13.621094 4.757812 -13.507812 C 4.742188 -13.398438 4.734375 -13.230469 4.734375 -13.007812 L 4.734375 -10.28125 L 11.8125 -10.042969 L 11.8125 -7.269531 L 4.734375 -7.054688 L 4.734375 -4.328125 C 4.734375 -4.023438 4.773438 -3.78125 4.855469 -3.597656 C 4.933594 -3.414062 5.0625 -3.289062 5.234375 -3.214844 C 5.410156 -3.144531 5.558594 -3.105469 5.679688 -3.097656 C 5.796875 -3.089844 5.976562 -3.085938 6.214844 -3.085938 L 12.886719 -3.085938 L 12.886719 -0.335938 C 12.488281 -0.285156 11.667969 -0.226562 10.425781 -0.15625 C 9.179688 -0.0820312 8.035156 -0.03125 6.980469 0 L 5.425781 0.0703125 C 5.0625 0.0859375 4.71875 0.078125 4.398438 0.046875 C 4.082031 0.015625 3.730469 -0.0703125 3.347656 -0.214844 C 2.964844 -0.359375 2.632812 -0.550781 2.355469 -0.789062 C 2.078125 -1.027344 1.84375 -1.375 1.660156 -1.828125 C 1.476562 -2.285156 1.386719 -2.820312 1.386719 -3.441406 Z M 1.386719 -3.441406 "/></g></g></g><g fill="#000000" fill-opacity="1"><g transform="translate(90.676455, 213.974487)"><g><path d="M 1.171875 -11.621094 L 1.171875 -13.125 C 1.171875 -13.796875 1.25 -14.394531 1.410156 -14.917969 C 1.570312 -15.445312 1.785156 -15.875 2.054688 -16.210938 C 2.328125 -16.546875 2.664062 -16.820312 3.074219 -17.035156 C 3.480469 -17.25 3.910156 -17.402344 4.363281 -17.488281 C 4.816406 -17.578125 5.332031 -17.628906 5.90625 -17.644531 C 7.117188 -17.675781 8.367188 -17.621094 9.660156 -17.476562 C 10.949219 -17.335938 11.953125 -17.160156 12.671875 -16.953125 L 12.671875 -14.320312 C 10.855469 -14.480469 8.902344 -14.5625 6.8125 -14.5625 C 5.96875 -14.578125 5.375 -14.484375 5.03125 -14.285156 C 4.691406 -14.085938 4.519531 -13.613281 4.519531 -12.863281 L 4.519531 -12.003906 C 4.519531 -11.332031 4.65625 -10.886719 4.925781 -10.664062 C 5.195312 -10.441406 5.683594 -10.328125 6.382812 -10.328125 L 9.15625 -10.328125 C 9.570312 -10.328125 9.957031 -10.289062 10.316406 -10.210938 C 10.675781 -10.128906 10.988281 -10.019531 11.25 -9.875 C 11.511719 -9.730469 11.75 -9.5625 11.96875 -9.371094 C 12.183594 -9.179688 12.367188 -8.964844 12.515625 -8.726562 C 12.667969 -8.488281 12.796875 -8.246094 12.898438 -7.996094 C 13.003906 -7.75 13.082031 -7.492188 13.136719 -7.222656 C 13.195312 -6.949219 13.234375 -6.691406 13.257812 -6.445312 C 13.28125 -6.195312 13.292969 -5.945312 13.292969 -5.691406 L 13.292969 -4.519531 C 13.292969 -3.753906 13.199219 -3.085938 13.007812 -2.511719 C 12.816406 -1.9375 12.574219 -1.480469 12.277344 -1.148438 C 11.984375 -0.8125 11.617188 -0.542969 11.179688 -0.335938 C 10.738281 -0.128906 10.304688 0.0117188 9.875 0.0820312 C 9.445312 0.15625 8.972656 0.191406 8.464844 0.191406 C 5.578125 0.191406 3.324219 -0.046875 1.699219 -0.527344 L 1.699219 -3.15625 C 3.449219 -2.980469 5.484375 -2.894531 7.792969 -2.894531 C 8.097656 -2.894531 8.355469 -2.910156 8.570312 -2.941406 C 8.785156 -2.972656 9.011719 -3.035156 9.242188 -3.132812 C 9.472656 -3.226562 9.648438 -3.382812 9.765625 -3.597656 C 9.886719 -3.8125 9.945312 -4.082031 9.945312 -4.398438 L 9.945312 -5.332031 C 9.945312 -5.890625 9.835938 -6.304688 9.613281 -6.574219 C 9.386719 -6.847656 8.972656 -6.980469 8.367188 -6.980469 L 5.691406 -6.980469 C 2.679688 -6.996094 1.171875 -8.542969 1.171875 -11.621094 Z M 1.171875 -11.621094 "/></g></g></g><g fill="#000000" fill-opacity="1"><g transform="translate(104.781092, 213.974487)"><g><path d="M 0.742188 -14.417969 L 0.742188 -17.503906 L 13.675781 -17.503906 L 13.675781 -14.417969 L 8.824219 -14.417969 L 8.824219 0 L 5.476562 0 L 5.476562 -14.417969 Z M 0.742188 -14.417969 "/></g></g></g><g fill="#000000" fill-opacity="1"><g transform="translate(118.957448, 213.974487)"><g><path d="M 1.171875 -11.621094 L 1.171875 -13.125 C 1.171875 -13.796875 1.25 -14.394531 1.410156 -14.917969 C 1.570312 -15.445312 1.785156 -15.875 2.054688 -16.210938 C 2.328125 -16.546875 2.664062 -16.820312 3.074219 -17.035156 C 3.480469 -17.25 3.910156 -17.402344 4.363281 -17.488281 C 4.816406 -17.578125 5.332031 -17.628906 5.90625 -17.644531 C 7.117188 -17.675781 8.367188 -17.621094 9.660156 -17.476562 C 10.949219 -17.335938 11.953125 -17.160156 12.671875 -16.953125 L 12.671875 -14.320312 C 10.855469 -14.480469 8.902344 -14.5625 6.8125 -14.5625 C 5.96875 -14.578125 5.375 -14.484375 5.03125 -14.285156 C 4.691406 -14.085938 4.519531 -13.613281 4.519531 -12.863281 L 4.519531 -12.003906 C 4.519531 -11.332031 4.65625 -10.886719 4.925781 -10.664062 C 5.195312 -10.441406 5.683594 -10.328125 6.382812 -10.328125 L 9.15625 -10.328125 C 9.570312 -10.328125 9.957031 -10.289062 10.316406 -10.210938 C 10.675781 -10.128906 10.988281 -10.019531 11.25 -9.875 C 11.511719 -9.730469 11.75 -9.5625 11.96875 -9.371094 C 12.183594 -9.179688 12.367188 -8.964844 12.515625 -8.726562 C 12.667969 -8.488281 12.796875 -8.246094 12.898438 -7.996094 C 13.003906 -7.75 13.082031 -7.492188 13.136719 -7.222656 C 13.195312 -6.949219 13.234375 -6.691406 13.257812 -6.445312 C 13.28125 -6.195312 13.292969 -5.945312 13.292969 -5.691406 L 13.292969 -4.519531 C 13.292969 -3.753906 13.199219 -3.085938 13.007812 -2.511719 C 12.816406 -1.9375 12.574219 -1.480469 12.277344 -1.148438 C 11.984375 -0.8125 11.617188 -0.542969 11.179688 -0.335938 C 10.738281 -0.128906 10.304688 0.0117188 9.875 0.0820312 C 9.445312 0.15625 8.972656 0.191406 8.464844 0.191406 C 5.578125 0.191406 3.324219 -0.046875 1.699219 -0.527344 L 1.699219 -3.15625 C 3.449219 -2.980469 5.484375 -2.894531 7.792969 -2.894531 C 8.097656 -2.894531 8.355469 -2.910156 8.570312 -2.941406 C 8.785156 -2.972656 9.011719 -3.035156 9.242188 -3.132812 C 9.472656 -3.226562 9.648438 -3.382812 9.765625 -3.597656 C 9.886719 -3.8125 9.945312 -4.082031 9.945312 -4.398438 L 9.945312 -5.332031 C 9.945312 -5.890625 9.835938 -6.304688 9.613281 -6.574219 C 9.386719 -6.847656 8.972656 -6.980469 8.367188 -6.980469 L 5.691406 -6.980469 C 2.679688 -6.996094 1.171875 -8.542969 1.171875 -11.621094 Z M 1.171875 -11.621094 "/></g></g></g><g fill="#000000" fill-opacity="1"><g transform="translate(133.062085, 213.974487)"><g><path d="M 1.433594 -17.503906 L 4.78125 -17.503906 L 4.78125 0 L 1.433594 0 Z M 1.433594 -17.503906 "/></g></g></g><g fill="#000000" fill-opacity="1"><g transform="translate(138.919102, 213.974487)"><g><path d="M 1.433594 0 L 1.433594 -17.503906 L 8.871094 -17.503906 C 12.917969 -17.503906 14.945312 -14.5625 14.945312 -8.679688 C 14.945312 -7.371094 14.824219 -6.195312 14.585938 -5.152344 C 14.347656 -4.109375 13.988281 -3.195312 13.507812 -2.414062 C 13.03125 -1.632812 12.398438 -1.035156 11.609375 -0.621094 C 10.820312 -0.207031 9.90625 0 8.871094 0 Z M 4.78125 -2.988281 L 8.609375 -2.988281 C 10.601562 -2.988281 11.597656 -4.894531 11.597656 -8.703125 C 11.597656 -9.628906 11.546875 -10.429688 11.453125 -11.105469 C 11.355469 -11.785156 11.230469 -12.339844 11.070312 -12.78125 C 10.910156 -13.21875 10.703125 -13.570312 10.449219 -13.832031 C 10.195312 -14.09375 9.917969 -14.277344 9.625 -14.382812 C 9.328125 -14.484375 8.988281 -14.539062 8.609375 -14.539062 L 4.78125 -14.539062 Z M 4.78125 -2.988281 "/></g></g></g><g fill="#000000" fill-opacity="1"><g transform="translate(154.744986, 213.974487)"><g><path d="M 1.386719 -3.441406 L 1.386719 -13.867188 C 1.386719 -14.457031 1.464844 -14.976562 1.625 -15.421875 C 1.785156 -15.867188 1.992188 -16.21875 2.246094 -16.472656 C 2.503906 -16.730469 2.800781 -16.941406 3.144531 -17.109375 C 3.488281 -17.273438 3.820312 -17.382812 4.148438 -17.429688 C 4.476562 -17.476562 4.820312 -17.503906 5.1875 -17.503906 C 9.300781 -17.390625 11.867188 -17.261719 12.886719 -17.121094 L 12.886719 -14.347656 L 5.976562 -14.347656 C 5.675781 -14.347656 5.433594 -14.3125 5.261719 -14.25 C 5.085938 -14.1875 4.960938 -14.074219 4.890625 -13.914062 C 4.816406 -13.757812 4.773438 -13.621094 4.757812 -13.507812 C 4.742188 -13.398438 4.734375 -13.230469 4.734375 -13.007812 L 4.734375 -10.28125 L 11.8125 -10.042969 L 11.8125 -7.269531 L 4.734375 -7.054688 L 4.734375 -4.328125 C 4.734375 -4.023438 4.773438 -3.78125 4.855469 -3.597656 C 4.933594 -3.414062 5.0625 -3.289062 5.234375 -3.214844 C 5.410156 -3.144531 5.558594 -3.105469 5.679688 -3.097656 C 5.796875 -3.089844 5.976562 -3.085938 6.214844 -3.085938 L 12.886719 -3.085938 L 12.886719 -0.335938 C 12.488281 -0.285156 11.667969 -0.226562 10.425781 -0.15625 C 9.179688 -0.0820312 8.035156 -0.03125 6.980469 0 L 5.425781 0.0703125 C 5.0625 0.0859375 4.71875 0.078125 4.398438 0.046875 C 4.082031 0.015625 3.730469 -0.0703125 3.347656 -0.214844 C 2.964844 -0.359375 2.632812 -0.550781 2.355469 -0.789062 C 2.078125 -1.027344 1.84375 -1.375 1.660156 -1.828125 C 1.476562 -2.285156 1.386719 -2.820312 1.386719 -3.441406 Z M 1.386719 -3.441406 "/></g></g></g><g fill="#000000" fill-opacity="1"><g transform="translate(168.29978, 213.974487)"><g/></g></g><g fill="#000000" fill-opacity="1"><g transform="translate(176.069288, 213.974487)"><g><path d="M 1.21875 0 L 1.21875 -17.503906 L 8.871094 -17.503906 C 9.589844 -17.503906 10.226562 -17.410156 10.785156 -17.226562 C 11.339844 -17.042969 11.839844 -16.75 12.277344 -16.34375 C 12.714844 -15.9375 13.054688 -15.371094 13.292969 -14.644531 C 13.53125 -13.917969 13.652344 -13.054688 13.652344 -12.050781 C 13.652344 -11.222656 13.582031 -10.496094 13.4375 -9.875 C 13.292969 -9.253906 13.132812 -8.777344 12.960938 -8.453125 C 12.785156 -8.125 12.542969 -7.839844 12.242188 -7.589844 C 11.9375 -7.34375 11.707031 -7.1875 11.546875 -7.125 C 11.390625 -7.0625 11.15625 -6.980469 10.855469 -6.886719 L 14.179688 0 L 10.402344 0 L 7.507812 -6.625 L 4.566406 -6.957031 L 4.566406 0 Z M 4.589844 -9.589844 L 8.558594 -9.589844 C 8.878906 -9.589844 9.132812 -9.617188 9.324219 -9.671875 C 9.515625 -9.726562 9.6875 -9.84375 9.839844 -10.019531 C 9.992188 -10.195312 10.101562 -10.445312 10.171875 -10.769531 C 10.246094 -11.097656 10.28125 -11.523438 10.28125 -12.050781 C 10.28125 -12.992188 10.136719 -13.640625 9.851562 -14 C 9.5625 -14.359375 9.132812 -14.539062 8.558594 -14.539062 L 4.589844 -14.539062 Z M 4.589844 -9.589844 "/></g></g></g><g fill="#000000" fill-opacity="1"><g transform="translate(190.580338, 213.974487)"><g><path d="M 1.386719 -3.441406 L 1.386719 -13.867188 C 1.386719 -14.457031 1.464844 -14.976562 1.625 -15.421875 C 1.785156 -15.867188 1.992188 -16.21875 2.246094 -16.472656 C 2.503906 -16.730469 2.800781 -16.941406 3.144531 -17.109375 C 3.488281 -17.273438 3.820312 -17.382812 4.148438 -17.429688 C 4.476562 -17.476562 4.820312 -17.503906 5.1875 -17.503906 C 9.300781 -17.390625 11.867188 -17.261719 12.886719 -17.121094 L 12.886719 -14.347656 L 5.976562 -14.347656 C 5.675781 -14.347656 5.433594 -14.3125 5.261719 -14.25 C 5.085938 -14.1875 4.960938 -14.074219 4.890625 -13.914062 C 4.816406 -13.757812 4.773438 -13.621094 4.757812 -13.507812 C 4.742188 -13.398438 4.734375 -13.230469 4.734375 -13.007812 L 4.734375 -10.28125 L 11.8125 -10.042969 L 11.8125 -7.269531 L 4.734375 -7.054688 L 4.734375 -4.328125 C 4.734375 -4.023438 4.773438 -3.78125 4.855469 -3.597656 C 4.933594 -3.414062 5.0625 -3.289062 5.234375 -3.214844 C 5.410156 -3.144531 5.558594 -3.105469 5.679688 -3.097656 C 5.796875 -3.089844 5.976562 -3.085938 6.214844 -3.085938 L 12.886719 -3.085938 L 12.886719 -0.335938 C 12.488281 -0.285156 11.667969 -0.226562 10.425781 -0.15625 C 9.179688 -0.0820312 8.035156 -0.03125 6.980469 0 L 5.425781 0.0703125 C 5.0625 0.0859375 4.71875 0.078125 4.398438 0.046875 C 4.082031 0.015625 3.730469 -0.0703125 3.347656 -0.214844 C 2.964844 -0.359375 2.632812 -0.550781 2.355469 -0.789062 C 2.078125 -1.027344 1.84375 -1.375 1.660156 -1.828125 C 1.476562 -2.285156 1.386719 -2.820312 1.386719 -3.441406 Z M 1.386719 -3.441406 "/></g></g></g><g fill="#000000" fill-opacity="1"><g transform="translate(204.135131, 213.974487)"><g><path d="M 1.433594 0 L 1.433594 -17.503906 L 4.828125 -17.503906 L 11.765625 -6.191406 L 11.765625 -17.503906 L 15.109375 -17.503906 L 15.109375 0 L 11.765625 0 L 4.804688 -11.191406 L 4.804688 0 Z M 1.433594 0 "/></g></g></g><g fill="#000000" fill-opacity="1"><g transform="translate(220.343512, 213.974487)"><g><path d="M 1.171875 -8.632812 C 1.171875 -9.445312 1.199219 -10.195312 1.253906 -10.878906 C 1.3125 -11.566406 1.398438 -12.179688 1.519531 -12.71875 C 1.636719 -13.261719 1.773438 -13.753906 1.925781 -14.191406 C 2.078125 -14.628906 2.261719 -15.011719 2.488281 -15.339844 C 2.710938 -15.664062 2.9375 -15.953125 3.167969 -16.199219 C 3.398438 -16.445312 3.675781 -16.652344 3.992188 -16.820312 C 4.3125 -16.988281 4.617188 -17.125 4.914062 -17.226562 C 5.207031 -17.332031 5.546875 -17.410156 5.929688 -17.464844 C 6.3125 -17.523438 6.675781 -17.5625 7.019531 -17.585938 C 7.359375 -17.609375 7.753906 -17.621094 8.199219 -17.621094 C 8.773438 -17.621094 9.273438 -17.605469 9.695312 -17.574219 C 10.117188 -17.542969 10.5625 -17.472656 11.035156 -17.371094 C 11.503906 -17.265625 11.90625 -17.121094 12.242188 -16.929688 C 12.578125 -16.738281 12.914062 -16.492188 13.257812 -16.199219 C 13.601562 -15.902344 13.882812 -15.53125 14.105469 -15.074219 C 14.328125 -14.621094 14.53125 -14.09375 14.703125 -13.496094 C 14.878906 -12.898438 15.011719 -12.191406 15.097656 -11.371094 C 15.1875 -10.546875 15.230469 -9.636719 15.230469 -8.632812 C 15.230469 -7.546875 15.171875 -6.578125 15.050781 -5.726562 C 14.933594 -4.875 14.777344 -4.140625 14.585938 -3.527344 C 14.394531 -2.914062 14.136719 -2.386719 13.808594 -1.949219 C 13.480469 -1.511719 13.136719 -1.160156 12.78125 -0.898438 C 12.421875 -0.632812 11.988281 -0.425781 11.476562 -0.273438 C 10.964844 -0.125 10.460938 -0.0234375 9.957031 0.0234375 C 9.457031 0.0703125 8.871094 0.09375 8.199219 0.09375 C 7.613281 0.09375 7.097656 0.078125 6.660156 0.046875 C 6.21875 0.015625 5.765625 -0.046875 5.296875 -0.144531 C 4.824219 -0.238281 4.421875 -0.378906 4.089844 -0.5625 C 3.753906 -0.746094 3.417969 -0.984375 3.085938 -1.277344 C 2.75 -1.574219 2.46875 -1.941406 2.246094 -2.378906 C 2.023438 -2.816406 1.828125 -3.328125 1.660156 -3.910156 C 1.496094 -4.492188 1.371094 -5.175781 1.292969 -5.964844 C 1.210938 -6.753906 1.171875 -7.644531 1.171875 -8.632812 Z M 4.519531 -8.632812 C 4.519531 -7.644531 4.550781 -6.835938 4.613281 -6.203125 C 4.679688 -5.574219 4.785156 -5.035156 4.9375 -4.589844 C 5.089844 -4.144531 5.316406 -3.808594 5.617188 -3.585938 C 5.921875 -3.363281 6.269531 -3.207031 6.660156 -3.121094 C 7.050781 -3.03125 7.5625 -2.988281 8.199219 -2.988281 C 9.1875 -2.988281 9.929688 -3.132812 10.425781 -3.417969 C 10.917969 -3.707031 11.285156 -4.253906 11.523438 -5.058594 C 11.765625 -5.863281 11.882812 -7.054688 11.882812 -8.632812 C 11.882812 -9.539062 11.855469 -10.316406 11.800781 -10.960938 C 11.742188 -11.609375 11.644531 -12.148438 11.5 -12.589844 C 11.355469 -13.027344 11.203125 -13.375 11.035156 -13.628906 C 10.867188 -13.882812 10.632812 -14.078125 10.328125 -14.214844 C 10.027344 -14.351562 9.71875 -14.4375 9.410156 -14.476562 C 9.097656 -14.515625 8.695312 -14.539062 8.199219 -14.539062 C 7.785156 -14.539062 7.449219 -14.523438 7.183594 -14.5 C 6.921875 -14.476562 6.644531 -14.425781 6.347656 -14.347656 C 6.054688 -14.265625 5.820312 -14.144531 5.65625 -13.976562 C 5.488281 -13.808594 5.320312 -13.582031 5.152344 -13.292969 C 4.984375 -13.007812 4.863281 -12.652344 4.78125 -12.230469 C 4.703125 -11.808594 4.636719 -11.300781 4.589844 -10.710938 C 4.542969 -10.121094 4.519531 -9.429688 4.519531 -8.632812 Z M 4.519531 -8.632812 "/></g></g></g><g fill="#000000" fill-opacity="1"><g transform="translate(236.384557, 213.974487)"><g><path d="M 0.8125 -17.503906 L 4.375 -17.503906 L 8.273438 -4.398438 L 12.386719 -17.503906 L 15.949219 -17.503906 L 10.1875 0 L 6.3125 0 Z M 0.8125 -17.503906 "/></g></g></g><g fill="#000000" fill-opacity="1"><g transform="translate(252.760285, 213.974487)"><g><path d="M 0.8125 0 L 6.71875 -17.503906 L 10.519531 -17.503906 L 16.210938 0 L 12.648438 0 L 11.40625 -3.875 L 5.667969 -3.875 L 4.398438 0 Z M 6.550781 -6.839844 L 10.617188 -6.839844 L 8.65625 -13.101562 Z M 6.550781 -6.839844 "/></g></g></g><g fill="#000000" fill-opacity="1"><g transform="translate(269.30336, 213.974487)"><g><path d="M 0.742188 -14.417969 L 0.742188 -17.503906 L 13.675781 -17.503906 L 13.675781 -14.417969 L 8.824219 -14.417969 L 8.824219 0 L 5.476562 0 L 5.476562 -14.417969 Z M 0.742188 -14.417969 "/></g></g></g><g fill="#000000" fill-opacity="1"><g transform="translate(283.479704, 213.974487)"><g><path d="M 1.433594 -17.503906 L 4.78125 -17.503906 L 4.78125 0 L 1.433594 0 Z M 1.433594 -17.503906 "/></g></g></g><g fill="#000000" fill-opacity="1"><g transform="translate(289.336744, 213.974487)"><g><path d="M 1.171875 -8.632812 C 1.171875 -9.445312 1.199219 -10.195312 1.253906 -10.878906 C 1.3125 -11.566406 1.398438 -12.179688 1.519531 -12.71875 C 1.636719 -13.261719 1.773438 -13.753906 1.925781 -14.191406 C 2.078125 -14.628906 2.261719 -15.011719 2.488281 -15.339844 C 2.710938 -15.664062 2.9375 -15.953125 3.167969 -16.199219 C 3.398438 -16.445312 3.675781 -16.652344 3.992188 -16.820312 C 4.3125 -16.988281 4.617188 -17.125 4.914062 -17.226562 C 5.207031 -17.332031 5.546875 -17.410156 5.929688 -17.464844 C 6.3125 -17.523438 6.675781 -17.5625 7.019531 -17.585938 C 7.359375 -17.609375 7.753906 -17.621094 8.199219 -17.621094 C 8.773438 -17.621094 9.273438 -17.605469 9.695312 -17.574219 C 10.117188 -17.542969 10.5625 -17.472656 11.035156 -17.371094 C 11.503906 -17.265625 11.90625 -17.121094 12.242188 -16.929688 C 12.578125 -16.738281 12.914062 -16.492188 13.257812 -16.199219 C 13.601562 -15.902344 13.882812 -15.53125 14.105469 -15.074219 C 14.328125 -14.621094 14.53125 -14.09375 14.703125 -13.496094 C 14.878906 -12.898438 15.011719 -12.191406 15.097656 -11.371094 C 15.1875 -10.546875 15.230469 -9.636719 15.230469 -8.632812 C 15.230469 -7.546875 15.171875 -6.578125 15.050781 -5.726562 C 14.933594 -4.875 14.777344 -4.140625 14.585938 -3.527344 C 14.394531 -2.914062 14.136719 -2.386719 13.808594 -1.949219 C 13.480469 -1.511719 13.136719 -1.160156 12.78125 -0.898438 C 12.421875 -0.632812 11.988281 -0.425781 11.476562 -0.273438 C 10.964844 -0.125 10.460938 -0.0234375 9.957031 0.0234375 C 9.457031 0.0703125 8.871094 0.09375 8.199219 0.09375 C 7.613281 0.09375 7.097656 0.078125 6.660156 0.046875 C 6.21875 0.015625 5.765625 -0.046875 5.296875 -0.144531 C 4.824219 -0.238281 4.421875 -0.378906 4.089844 -0.5625 C 3.753906 -0.746094 3.417969 -0.984375 3.085938 -1.277344 C 2.75 -1.574219 2.46875 -1.941406 2.246094 -2.378906 C 2.023438 -2.816406 1.828125 -3.328125 1.660156 -3.910156 C 1.496094 -4.492188 1.371094 -5.175781 1.292969 -5.964844 C 1.210938 -6.753906 1.171875 -7.644531 1.171875 -8.632812 Z M 4.519531 -8.632812 C 4.519531 -7.644531 4.550781 -6.835938 4.613281 -6.203125 C 4.679688 -5.574219 4.785156 -5.035156 4.9375 -4.589844 C 5.089844 -4.144531 5.316406 -3.808594 5.617188 -3.585938 C 5.921875 -3.363281 6.269531 -3.207031 6.660156 -3.121094 C 7.050781 -3.03125 7.5625 -2.988281 8.199219 -2.988281 C 9.1875 -2.988281 9.929688 -3.132812 10.425781 -3.417969 C 10.917969 -3.707031 11.285156 -4.253906 11.523438 -5.058594 C 11.765625 -5.863281 11.882812 -7.054688 11.882812 -8.632812 C 11.882812 -9.539062 11.855469 -10.316406 11.800781 -10.960938 C 11.742188 -11.609375 11.644531 -12.148438 11.5 -12.589844 C 11.355469 -13.027344 11.203125 -13.375 11.035156 -13.628906 C 10.867188 -13.882812 10.632812 -14.078125 10.328125 -14.214844 C 10.027344 -14.351562 9.71875 -14.4375 9.410156 -14.476562 C 9.097656 -14.515625 8.695312 -14.539062 8.199219 -14.539062 C 7.785156 -14.539062 7.449219 -14.523438 7.183594 -14.5 C 6.921875 -14.476562 6.644531 -14.425781 6.347656 -14.347656 C 6.054688 -14.265625 5.820312 -14.144531 5.65625 -13.976562 C 5.488281 -13.808594 5.320312 -13.582031 5.152344 -13.292969 C 4.984375 -13.007812 4.863281 -12.652344 4.78125 -12.230469 C 4.703125 -11.808594 4.636719 -11.300781 4.589844 -10.710938 C 4.542969 -10.121094 4.519531 -9.429688 4.519531 -8.632812 Z M 4.519531 -8.632812 "/></g></g></g><g fill="#000000" fill-opacity="1"><g transform="translate(305.37779, 213.974487)"><g><path d="M 1.433594 0 L 1.433594 -17.503906 L 4.828125 -17.503906 L 11.765625 -6.191406 L 11.765625 -17.503906 L 15.109375 -17.503906 L 15.109375 0 L 11.765625 0 L 4.804688 -11.191406 L 4.804688 0 Z M 1.433594 0 "/></g></g></g><g fill="#000000" fill-opacity="1"><g transform="translate(172.825775, 239.383285)"><g><path d="M 1.980469 -15.398438 L 2.902344 -15.398438 L 2.902344 0 L 1.980469 0 Z M 1.980469 -15.398438 "/></g></g></g><g fill="#000000" fill-opacity="1"><g transform="translate(177.7089, 239.383285)"><g><path d="M 10.054688 -1.714844 C 10.097656 -1.613281 10.144531 -1.503906 10.195312 -1.386719 C 10.246094 -1.269531 10.300781 -1.15625 10.359375 -1.042969 C 10.417969 -0.933594 10.484375 -0.84375 10.558594 -0.769531 C 10.632812 -0.695312 10.707031 -0.660156 10.777344 -0.660156 C 10.867188 -0.660156 10.929688 -0.695312 10.964844 -0.769531 C 11.003906 -0.84375 11.019531 -0.929688 11.019531 -1.035156 L 11.019531 -15.664062 L 11.945312 -15.664062 L 11.945312 -0.792969 C 11.945312 -0.484375 11.855469 -0.230469 11.679688 -0.03125 C 11.503906 0.164062 11.21875 0.265625 10.824219 0.265625 C 10.601562 0.265625 10.414062 0.226562 10.25 0.152344 C 10.089844 0.0820312 9.953125 -0.0117188 9.84375 -0.121094 C 9.734375 -0.230469 9.640625 -0.347656 9.570312 -0.472656 C 9.496094 -0.597656 9.4375 -0.71875 9.394531 -0.835938 L 3.410156 -13.726562 C 3.25 -14.078125 3.113281 -14.351562 3.003906 -14.539062 C 2.894531 -14.730469 2.785156 -14.828125 2.683594 -14.828125 C 2.507812 -14.828125 2.417969 -14.710938 2.417969 -14.472656 L 2.417969 0 L 1.496094 0 L 1.496094 -14.472656 C 1.496094 -14.605469 1.515625 -14.742188 1.550781 -14.882812 C 1.585938 -15.019531 1.648438 -15.148438 1.738281 -15.265625 C 1.824219 -15.382812 1.941406 -15.480469 2.089844 -15.550781 C 2.238281 -15.625 2.417969 -15.664062 2.640625 -15.664062 C 2.960938 -15.664062 3.21875 -15.601562 3.410156 -15.476562 C 3.601562 -15.351562 3.785156 -15.105469 3.960938 -14.738281 Z M 10.054688 -1.714844 "/></g></g></g><g fill="#000000" fill-opacity="1"><g transform="translate(191.148508, 239.383285)"><g><path d="M 10.472656 -15.398438 L 10.472656 -14.605469 L 8.578125 -14.605469 C 7.992188 -14.605469 7.375 -14.523438 6.730469 -14.351562 C 6.085938 -14.183594 5.5 -13.933594 4.972656 -13.59375 C 4.046875 -13.023438 3.296875 -12.246094 2.714844 -11.261719 C 2.136719 -10.28125 1.847656 -9.09375 1.847656 -7.699219 C 1.847656 -6.628906 2.03125 -5.667969 2.398438 -4.816406 C 2.765625 -3.96875 3.257812 -3.246094 3.882812 -2.652344 C 4.503906 -2.058594 5.226562 -1.597656 6.050781 -1.277344 C 6.871094 -0.953125 7.734375 -0.792969 8.644531 -0.792969 L 10.449219 -0.792969 L 10.449219 0 L 8.445312 0 C 7.464844 0 6.519531 -0.175781 5.609375 -0.527344 C 4.699219 -0.878906 3.894531 -1.386719 3.191406 -2.046875 C 2.484375 -2.707031 1.925781 -3.511719 1.507812 -4.464844 C 1.089844 -5.417969 0.878906 -6.496094 0.878906 -7.699219 C 0.878906 -9.28125 1.222656 -10.632812 1.902344 -11.746094 C 2.585938 -12.859375 3.460938 -13.734375 4.53125 -14.363281 C 5.101562 -14.703125 5.738281 -14.957031 6.433594 -15.132812 C 7.128906 -15.308594 7.789062 -15.398438 8.402344 -15.398438 Z M 10.472656 -15.398438 "/></g></g></g></svg>